<mxfile host="65bd71144e">
    <diagram id="N9yBZ6DVG18FfWYZrw34" name="Page-1">
        <mxGraphModel dx="1133" dy="433" grid="1" gridSize="10" guides="1" tooltips="1" connect="1" arrows="1" fold="1" page="1" pageScale="1" pageWidth="850" pageHeight="1100" background="none" math="0" shadow="0">
            <root>
                <mxCell id="0"/>
                <mxCell id="1" parent="0"/>
                <mxCell id="2" value="&lt;font style=&quot;font-size: 24px&quot;&gt;q&lt;sub&gt;0&lt;/sub&gt;&lt;/font&gt;" style="ellipse;whiteSpace=wrap;html=1;aspect=fixed;strokeWidth=2;strokeColor=#009900;" parent="1" vertex="1">
                    <mxGeometry x="512.5" y="170" width="70" height="70" as="geometry"/>
                </mxCell>
                <mxCell id="5" value="{ crot_x, crot_y }" style="rounded=0;orthogonalLoop=1;jettySize=auto;html=1;exitX=1;exitY=0;exitDx=0;exitDy=0;entryX=0;entryY=1;entryDx=0;entryDy=0;strokeWidth=3;fontSize=16;endArrow=none;endFill=0;startArrow=classic;startFill=1;" parent="1" source="3" target="2" edge="1">
                    <mxGeometry x="0.0202" y="65" relative="1" as="geometry">
                        <mxPoint as="offset"/>
                    </mxGeometry>
                </mxCell>
                <mxCell id="3" value="&lt;font style=&quot;font-size: 24px&quot;&gt;q&lt;/font&gt;&lt;font style=&quot;font-size: 20px&quot;&gt;&lt;sub&gt;1&lt;/sub&gt;&lt;/font&gt;" style="ellipse;whiteSpace=wrap;html=1;aspect=fixed;strokeWidth=2;" parent="1" vertex="1">
                    <mxGeometry x="410" y="320" width="72.5" height="72.5" as="geometry"/>
                </mxCell>
                <mxCell id="6" value="{ crot_x, crot_y }" style="edgeStyle=none;rounded=0;orthogonalLoop=1;jettySize=auto;html=1;exitX=0;exitY=0;exitDx=0;exitDy=0;entryX=1;entryY=1;entryDx=0;entryDy=0;strokeWidth=3;startArrow=classic;startFill=1;endArrow=none;endFill=0;fontSize=16;" parent="1" source="4" target="2" edge="1">
                    <mxGeometry x="-0.3401" y="-60" relative="1" as="geometry">
                        <mxPoint as="offset"/>
                    </mxGeometry>
                </mxCell>
                <mxCell id="4" value="&lt;font style=&quot;font-size: 24px&quot;&gt;q&lt;/font&gt;&lt;font style=&quot;font-size: 16.6667px&quot;&gt;&lt;sub&gt;2&lt;/sub&gt;&lt;/font&gt;" style="ellipse;whiteSpace=wrap;html=1;aspect=fixed;strokeWidth=2;" parent="1" vertex="1">
                    <mxGeometry x="612.5" y="320" width="70" height="70" as="geometry"/>
                </mxCell>
                <mxCell id="7" value="{ rot_x, rot_y, rot_z }" style="text;html=1;strokeColor=none;fillColor=none;align=center;verticalAlign=middle;whiteSpace=wrap;rounded=0;fontSize=16;" parent="1" vertex="1">
                    <mxGeometry x="370" y="400" width="160" height="20" as="geometry"/>
                </mxCell>
                <mxCell id="8" value="{ rot_x, rot_y, rot_z }" style="text;html=1;strokeColor=none;fillColor=none;align=center;verticalAlign=middle;whiteSpace=wrap;rounded=0;fontSize=16;" parent="1" vertex="1">
                    <mxGeometry x="572.5" y="400" width="150" height="20" as="geometry"/>
                </mxCell>
                <mxCell id="9" value="{ meas, rot_x, rot_y, rot_z }" style="text;html=1;strokeColor=none;fillColor=none;align=center;verticalAlign=middle;whiteSpace=wrap;rounded=0;fontSize=16;" parent="1" vertex="1">
                    <mxGeometry x="438.75" y="140" width="217.5" height="20" as="geometry"/>
                </mxCell>
                <mxCell id="10" value="" style="ellipse;whiteSpace=wrap;html=1;aspect=fixed;strokeColor=#009900;strokeWidth=2;fontSize=16;" parent="1" vertex="1">
                    <mxGeometry x="150" y="220" width="30" height="30" as="geometry"/>
                </mxCell>
                <mxCell id="11" value="communication qubit" style="text;html=1;strokeColor=none;fillColor=none;align=center;verticalAlign=middle;whiteSpace=wrap;rounded=0;fontSize=16;" parent="1" vertex="1">
                    <mxGeometry x="180" y="225" width="180" height="20" as="geometry"/>
                </mxCell>
                <mxCell id="12" value="" style="ellipse;whiteSpace=wrap;html=1;aspect=fixed;strokeWidth=2;fontSize=16;" parent="1" vertex="1">
                    <mxGeometry x="150" y="270" width="30" height="30" as="geometry"/>
                </mxCell>
                <mxCell id="13" value="storage qubit" style="text;html=1;strokeColor=none;fillColor=none;align=center;verticalAlign=middle;whiteSpace=wrap;rounded=0;fontSize=16;" parent="1" vertex="1">
                    <mxGeometry x="160" y="275" width="180" height="20" as="geometry"/>
                </mxCell>
                <mxCell id="15" value="" style="endArrow=classic;html=1;strokeWidth=3;" parent="1" edge="1">
                    <mxGeometry width="50" height="50" relative="1" as="geometry">
                        <mxPoint x="150" y="335" as="sourcePoint"/>
                        <mxPoint x="185" y="334.66" as="targetPoint"/>
                    </mxGeometry>
                </mxCell>
                <mxCell id="16" value="two-qubit gate" style="text;html=1;strokeColor=none;fillColor=none;align=center;verticalAlign=middle;whiteSpace=wrap;rounded=0;fontSize=16;" parent="1" vertex="1">
                    <mxGeometry x="160" y="325" width="180" height="20" as="geometry"/>
                </mxCell>
            </root>
        </mxGraphModel>
    </diagram>
</mxfile>